<?xml version="1.0" encoding="utf-8"?><svg xmlns="http://www.w3.org/2000/svg" xmlns:xlink="http://www.w3.org/1999/xlink"><symbol viewBox="0 0 24 24" id="icon-bookmark-filling"><path d="M2.849 23.55a2.954 2.954 0 003.266-.644L12 17.053l5.885 5.853a2.956 2.956 0 002.1.881 3.05 3.05 0 001.17-.237A2.953 2.953 0 0023 20.779V5a5.006 5.006 0 00-5-5H6a5.006 5.006 0 00-5 5v15.779a2.953 2.953 0 001.849 2.771z"/></symbol><symbol viewBox="0 0 24 24" id="icon-bookmark-outline"><path d="M20.137 24a2.8 2.8 0 01-1.987-.835L12 17.051l-6.15 6.118a2.8 2.8 0 01-3.095.609A2.8 2.8 0 011 21.154V5a5 5 0 015-5h12a5 5 0 015 5v16.154a2.8 2.8 0 01-1.751 2.624 2.867 2.867 0 01-1.112.222zM6 2a3 3 0 00-3 3v16.154a.843.843 0 001.437.6l6.863-6.821a1 1 0 011.41 0l6.855 6.819a.843.843 0 001.437-.6V5a3 3 0 00-3-3z"/></symbol><symbol viewBox="0 0 24 24" id="icon-phone"><path d="M6.62 10.79c1.44 2.83 3.76 5.14 6.59 6.59l2.2-2.2c.27-.27.67-.36 1.02-.24 1.12.37 2.33.57 3.57.57.55 0 1 .45 1 1V20c0 .55-.45 1-1 1-9.39 0-17-7.61-17-17 0-.55.45-1 1-1h3.5c.55 0 1 .45 1 1 0 1.25.2 2.45.57 3.57.11.35.03.74-.25 1.02l-2.2 2.2z" class="icon__color-element"/></symbol></svg>